# xmcd
#
# Track frame offsets:
#	150
#	2119
#	30866
#	55046
#	82626
#	111688
#	144695
#	167493
#	197287
#	221962
#	249254
#	277459
#
# Disc length: 4109 seconds
#
# Revision: 1
# Processed by: cddbd v1.5.2PL0 Copyright (c) Steve Scherf et al.
# Submitted via: audiograbber 1.83.01
#
DISCID=a1100b0c
DTITLE=City Beach Club - City Beach Club 2
DYEAR=2005
DGENRE=Ambient
TTITLE0=Intro - Intro
TTITLE1=Martin Böttcher - Melodie Für Jessica (Deep Dive Corp. Mix)
TTITLE2=Bliss - Dunia
TTITLE3=Cantoma - Marisi
TTITLE4=The Sushi Club - Shiosai
TTITLE5=Tomzen - Namaste
TTITLE6=Orbient - Heartclipping
TTITLE7=Deep Dive Corp. - Marsimba
TTITLE8=Emou - Yours
TTITLE9=Phonique - Fake It (Frankman Remix)
TTITLE10=Innocent Lovers - I Can Forget...
TTITLE11=David Panda - Sister Supreme (Gamat 3000 Remix)
EXTD=
EXTT0=
EXTT1=
EXTT2=
EXTT3=
EXTT4=
EXTT5=
EXTT6=
EXTT7=
EXTT8=
EXTT9=
EXTT10=
EXTT11=
PLAYORDER=
